<svg width="21" height="21" viewBox="0 0 21 21" fill="none" xmlns="http://www.w3.org/2000/svg">
<g clip-path="url(#clip0_23_120)">
<path d="M9.89282 4.01985H4.05949C3.61746 4.01985 3.19354 4.19545 2.88098 4.50801C2.56842 4.82057 2.39282 5.24449 2.39282 5.68652V17.3532C2.39282 17.7952 2.56842 18.2191 2.88098 18.5317C3.19354 18.8443 3.61746 19.0199 4.05949 19.0199H15.7262C16.1682 19.0199 16.5921 18.8443 16.9047 18.5317C17.2172 18.2191 17.3928 17.7952 17.3928 17.3532V11.5199" stroke="white" stroke-width="2" stroke-linecap="round" stroke-linejoin="round"/>
<path d="M16.1428 2.76986C16.4743 2.43834 16.924 2.25209 17.3928 2.25209C17.8617 2.25209 18.3113 2.43834 18.6428 2.76986C18.9743 3.10138 19.1606 3.55102 19.1606 4.01986C19.1606 4.4887 18.9743 4.93834 18.6428 5.26986L10.7262 13.1865L7.39282 14.0199L8.22616 10.6865L16.1428 2.76986Z" stroke="white" stroke-width="2" stroke-linecap="round" stroke-linejoin="round"/>
</g>
<defs>
<clipPath id="clip0_23_120">
<rect width="20" height="20" fill="white" transform="translate(0.726074 0.686523)"/>
</clipPath>
</defs>
</svg>
