<?xml version="1.0" encoding="UTF-8"?>
<svg width="366px" height="321px" viewBox="0 0 366 321" version="1.1" xmlns="http://www.w3.org/2000/svg" xmlns:xlink="http://www.w3.org/1999/xlink">
    <!-- Generator: Sketch 61.2 (89653) - https://sketch.com -->
    <title>Group 7</title>
    <desc>Created with Sketch.</desc>
    <defs>
        <path d="M17.9766031,0.924698549 L19.7622661,0.88165796 C21.9707636,0.828425613 23.804258,2.57561327 23.8574903,4.78411082 C23.8598053,4.88015208 23.8586595,4.97624555 23.8540552,5.0722043 L17.0640274,146.583933 C17.0102209,147.705321 16.0993677,148.594709 14.9770157,148.621761 L14.9770157,148.621761 L14.9770157,148.621761 C13.9114071,148.647446 13.0267391,147.804421 13.0010543,146.738813 C13.0005635,146.718448 13.000395,146.698077 13.0005491,146.677707 L14.0731032,4.89327924 C14.0894412,2.73350256 15.8173917,0.97674293 17.9766031,0.924698549 Z" id="path-1"></path>
        <path d="M17.9310263,0.924698549 L19.7166894,0.88165796 C21.9251869,0.828425613 23.7586813,2.57561327 23.8119136,4.78411082 C23.8142285,4.88015208 23.8130827,4.97624555 23.8084784,5.0722043 L17.0184507,146.583933 C16.9646441,147.705321 16.0537909,148.594709 14.9314389,148.621761 L14.9314389,148.621761 L14.9314389,148.621761 C13.8658304,148.647446 12.9811624,147.804421 12.9554776,146.738813 C12.9549867,146.718448 12.9548183,146.698077 12.9549724,146.677707 L14.0275265,4.89327924 C14.0438645,2.73350256 15.771815,0.97674293 17.9310263,0.924698549 Z" id="path-3"></path>
    </defs>
    <g id="Members" stroke="none" stroke-width="1" fill="none" fill-rule="evenodd">
        <g transform="translate(-540.000000, -141.000000)" id="Group-7">
            <g transform="translate(540.000000, 141.000000)">
                <rect id="Rectangle" fill="#E8F5F8" x="79" y="0" width="207" height="260"></rect>
                <polygon id="Rectangle" fill="#F6FCFD" points="286 0 366 -2.88657986e-13 366 320.095703 286 260"></polygon>
                <g id="Group-6" transform="translate(8.000000, 282.000000)">
                    <rect id="Rectangle" fill="#FFD66F" x="0" y="0" width="56" height="16" rx="3"></rect>
                    <path d="M0,2.06451613 L21.8598131,2.06451613 C23.5166673,2.06451613 24.8598131,3.40766188 24.8598131,5.06451613 L24.8598131,10.9354839 C24.8598131,12.5923381 23.5166673,13.9354839 21.8598131,13.9354839 L0,13.9354839 L0,13.9354839 L0,2.06451613 Z" id="Rectangle" fill="#F1F8FB"></path>
                    <path d="M0,5.41935484 L22.6409406,5.41935484 C22.8547283,5.41935484 23.0280374,5.59266397 23.0280374,5.80645161 C23.0280374,6.02023926 22.8547283,6.19354839 22.6409406,6.19354839 L0,6.19354839 L0,6.19354839 L0,5.41935484 Z" id="Rectangle" fill="#DFECF2"></path>
                    <path d="M0,9.5483871 L22.6409406,9.5483871 C22.8547283,9.5483871 23.0280374,9.72169623 23.0280374,9.93548387 C23.0280374,10.1492715 22.8547283,10.3225806 22.6409406,10.3225806 L0,10.3225806 L0,10.3225806 L0,9.5483871 Z" id="Rectangle" fill="#DFECF2"></path>
                </g>
                <g id="Group-5" transform="translate(0.000000, 263.000000)">
                    <rect id="Rectangle" fill="#FFCED9" x="0" y="2.63888889" width="56" height="16.3611111" rx="8"></rect>
                    <rect id="Rectangle" fill="#847AC6" x="0" y="0" width="56" height="19" rx="3"></rect>
                    <path d="M0,2.375 L32.0654206,2.375 C33.7222748,2.375 35.0654206,3.71814575 35.0654206,5.375 L35.0654206,13.625 C35.0654206,15.2818542 33.7222748,16.625 32.0654206,16.625 L0,16.625 L0,16.625 L0,2.375 Z" id="Rectangle" fill="#F1F8FB"></path>
                    <path d="M0,6.33333333 L31.9208204,6.33333333 C32.212304,6.33333333 32.4485981,6.56962749 32.4485981,6.86111111 C32.4485981,7.15259473 32.212304,7.38888889 31.9208204,7.38888889 L0,7.38888889 L0,7.38888889 L0,6.33333333 Z" id="Rectangle" fill="#DFECF2"></path>
                    <path d="M0,11.3472222 L32.0527648,11.3472222 C32.2713775,11.3472222 32.4485981,11.5244428 32.4485981,11.7430556 C32.4485981,11.9616683 32.2713775,12.1388889 32.0527648,12.1388889 L0,12.1388889 L0,12.1388889 L0,11.3472222 Z" id="Rectangle" fill="#DFECF2"></path>
                    <rect id="Rectangle" fill="#FBE16A" x="18.317757" y="11.3472222" width="5.75700935" height="1.31944444"></rect>
                    <rect id="Rectangle" fill="#BBDFFF" x="5.4953271" y="6.33333333" width="5.75700935" height="1.31944444"></rect>
                </g>
                <g id="Group-4" transform="translate(10.000000, 247.000000)">
                    <rect id="Rectangle" fill="#FFCED9" x="0" y="0" width="53" height="16" rx="8"></rect>
                    <rect id="Rectangle" fill="#24A2B7" x="0" y="0" width="53" height="16" rx="3"></rect>
                    <path d="M30.0246305,2.06451613 L50,2.06451613 C51.6568542,2.06451613 53,3.40766188 53,5.06451613 L53,10.9354839 C53,12.5923381 51.6568542,13.9354839 50,13.9354839 L30.0246305,13.9354839 L30.0246305,13.9354839 L30.0246305,2.06451613 Z" id="Rectangle" fill="#F1F8FB" transform="translate(41.512315, 8.000000) scale(-1, 1) translate(-41.512315, -8.000000) "></path>
                    <path d="M31.8522167,5.41935484 L52.6129032,5.41935484 C52.8266909,5.41935484 53,5.59266397 53,5.80645161 C53,6.02023926 52.8266909,6.19354839 52.6129032,6.19354839 L31.8522167,6.19354839 L31.8522167,6.19354839 L31.8522167,5.41935484 Z" id="Rectangle" fill="#DFECF2" transform="translate(42.426108, 5.806452) scale(-1, 1) translate(-42.426108, -5.806452) "></path>
                    <path d="M31.8522167,9.5483871 L52.6129032,9.5483871 C52.8266909,9.5483871 53,9.72169623 53,9.93548387 C53,10.1492715 52.8266909,10.3225806 52.6129032,10.3225806 L31.8522167,10.3225806 L31.8522167,10.3225806 L31.8522167,9.5483871 Z" id="Rectangle" fill="#DFECF2" transform="translate(42.426108, 9.935484) scale(-1, 1) translate(-42.426108, -9.935484) "></path>
                    <rect id="Rectangle" fill="#FBE16A" x="38.1182266" y="9.5483871" width="5.74384236" height="1.29032258"></rect>
                </g>
                <g id="Group-3" transform="translate(88.000000, 288.000000) scale(-1, 1) translate(-88.000000, -288.000000) translate(60.000000, 278.000000)">
                    <rect id="Rectangle" fill="#F67C83" x="0" y="0" width="56" height="20" rx="3"></rect>
                    <path d="M0,2 L19,2 C20.6568542,2 22,3.34314575 22,5 L22,14 C22,15.6568542 20.6568542,17 19,17 L0,17 L0,17 L0,2 Z" id="Rectangle" fill="#F1F8FB"></path>
                    <path d="M0,7 L20.5,7 C20.7761424,7 21,7.22385763 21,7.5 C21,7.77614237 20.7761424,8 20.5,8 L0,8 L0,8 L0,7 Z" id="Rectangle" fill="#DFECF2"></path>
                    <path d="M0,12 L20.5,12 C20.7761424,12 21,12.2238576 21,12.5 C21,12.7761424 20.7761424,13 20.5,13 L0,13 L0,13 L0,12 Z" id="Rectangle" fill="#DFECF2"></path>
                    <rect id="Rectangle" fill="#BBDFFF" x="9" y="7" width="7" height="1"></rect>
                </g>
                <g id="plant" transform="translate(250.000000, 136.000000)">
                    <g id="leaves" transform="translate(6.000000, 0.000000)">
                        <path d="M18,20 C19.9616435,20 20.9612757,45.3329638 20.9988966,95.9988914 C21.0001108,97.6551277 19.658463,98.9987694 18.0022268,98.9999992 C18.0014845,98.9999997 18.0007423,99 18,99 C16.3437633,99 15.0011182,97.6573549 15.0011182,96.0011182 C15.0011182,96.0003759 15.0011185,95.9996337 15.0011034,95.9988914 C15.0387243,45.3329638 16.0383565,20 18,20 Z" id="Rectangle" fill="#82B990"></path>
                        <path d="M8,28 C9.96164348,28 10.9612757,53.3329638 10.9988966,103.998891 C11.0001108,105.655128 9.65846299,106.998769 8.00222676,106.999999 C8.0014845,107 8.00074225,107 8,107 C6.34376331,107 5.00111818,105.657355 5.00111818,104.001118 C5.00111818,104.000376 5.00111846,103.999634 5.00110342,103.998891 C5.03872433,53.3329638 6.03835652,28 8,28 Z" id="Rectangle" fill="#7DB675"></path>
                        <path d="M24.5,0 C27.4309873,0 28.9301935,31.4991837 28.9976186,94.497551 C29.0002913,96.981525 26.9887877,98.9973389 24.5048137,98.9999974 C24.5032091,98.9999991 24.5016046,99 24.5,99 C22.0160246,99 20.0023646,96.9863401 20.0023646,94.5023646 C20.0023646,94.5007601 20.0023655,94.4991555 20.0023814,94.497551 C20.0698065,31.4991837 21.5690127,0 24.5,0 Z" id="Rectangle" fill="#7DB675"></path>
                        <path d="M12.5,11 C15.4222345,11 16.9212266,38.8322967 16.9969763,94.4968902 C17.0003658,96.980507 14.9897364,98.9966161 12.5061196,98.9999958 C12.5040797,98.9999986 12.5020399,99 12.5,99 C10.0163809,99 8.0030098,96.9866289 8.0030098,94.5030098 C8.0030098,94.5009699 8.00301118,94.4989301 8.00302373,94.4968902 C8.07877338,38.8322967 9.57776546,11 12.5,11 Z" id="Rectangle" fill="#A4CC92"></path>
                        <path d="M30.5,45 C32.7563615,45 33.9217586,61.8320228 33.9961913,95.4960683 C34.0004623,97.4269623 32.4386243,98.9957222 30.5077302,98.9999915 C30.5051535,98.9999972 30.5025767,99 30.5,99 C28.5691012,99 27.0037985,97.4346973 27.0037985,95.5037985 C27.0037985,95.5012217 27.0038013,95.498645 27.0038087,95.4960683 C27.0782414,61.8320228 28.2436385,45 30.5,45 Z" id="Rectangle" fill="#A4CC92"></path>
                        <path d="M23,35 C24.9539915,35 25.9534623,55.9994558 25.9984124,97.9983673 C26.0001942,99.65435 24.6591918,100.998226 23.0032091,100.999998 C23.0021394,100.999999 23.0010697,101 23,101 C21.3440164,101 20.0015764,99.65756 20.0015764,98.0015764 C20.0015764,98.0005067 20.001577,97.999437 20.0015876,97.9983673 C20.0465377,55.9994558 21.0460085,35 23,35 Z" id="Rectangle" fill="#A4CC92"></path>
                        <path d="M3.5,41 C5.76176552,41 6.92733463,59.1655406 6.99670732,95.4966219 C7.00038236,97.4277932 5.43784804,98.9963061 3.50667679,98.9999936 C3.5044512,98.9999979 3.5022256,99 3.5,99 C1.56882523,99 0.00329875946,97.4344735 0.00329875946,95.5032988 C0.00329875946,95.5010732 0.0033008843,95.4988476 0.003292683,95.4966219 C0.0726653703,59.1655406 1.23823448,41 3.5,41 Z" id="Rectangle" fill="#82B990"></path>
                        <path d="M17.5,51 C20.3555571,51 21.8520798,65.496367 21.9895681,94.489101 C22.0013165,96.9686156 20.0008048,98.9881913 17.5212902,98.9999495 C17.5141935,98.9999832 17.5070968,99 17.5,99 C15.0204575,99 13.0103912,96.9899337 13.0103912,94.5103912 C13.0103912,94.5032945 13.0104081,94.4961977 13.0104319,94.489101 C13.1479202,65.496367 14.6444429,51 17.5,51 Z" id="Rectangle" fill="#7DB675"></path>
                    </g>
                    <g id="pot" transform="translate(0.000000, 89.000000)">
                        <path d="M0,0 L46,0 L46,35 C46,43.2842712 39.2842712,50 31,50 L15,50 C6.71572875,50 1.01453063e-15,43.2842712 0,35 L0,0 L0,0 Z" id="Rectangle" fill="#D29C77"></path>
                        <rect id="Rectangle" fill="#C68E68" x="0" y="0" width="46" height="5"></rect>
                    </g>
                </g>
                <g id="leg-r" transform="translate(213.000000, 161.000000)">
                    <mask id="mask-2" fill="white">
                        <use xlink:href="#path-1"></use>
                    </mask>
                    <use id="Mask" fill="#F0D8AE" transform="translate(18.522788, 74.723915) scale(-1, 1) rotate(10.000000) translate(-18.522788, -74.723915) " xlink:href="#path-1"></use>
                </g>
                <g id="leg-l" transform="translate(32.000000, 161.000000)">
                    <mask id="mask-4" fill="white">
                        <use xlink:href="#path-3"></use>
                    </mask>
                    <use id="Mask" fill="#F0D8AE" transform="translate(18.477212, 74.723915) rotate(10.000000) translate(-18.477212, -74.723915) " xlink:href="#path-3"></use>
                </g>
                <g id="table" transform="translate(17.000000, 148.000000)">
                    <rect id="Rectangle" fill="#F2F2F2" x="0" y="14" width="251" height="14"></rect>
                    <polygon id="Rectangle" fill="#E9E9E9" points="20 0 231 0 251 14 0 14"></polygon>
                </g>
                <g id="laptop" transform="translate(49.000000, 91.000000)">
                    <rect id="Rectangle" fill="#84848E" x="12" y="55" width="112" height="5" rx="2.5"></rect>
                    <path d="M2.26943798,0 L82.6341433,0 C83.6414984,1.14721949e-15 84.4916347,0.749204224 84.6182757,1.74856724 L91.7146945,57.7485672 C91.853557,58.8443733 91.0778009,59.84527 89.9819948,59.9841324 C89.8986006,59.9947003 89.8146231,60 89.730562,60 L9.36585671,60 C8.35850156,60 7.5083653,59.2507958 7.38172426,58.2514328 L0.285305529,2.25143276 C0.146443049,1.15562667 0.922199122,0.154730033 2.01800521,0.0158675532 C2.10139939,0.00529969608 2.18537688,4.59530983e-16 2.26943798,0 Z" id="Rectangle" fill="#9E9EA7"></path>
                </g>
                <g id="Group-2" transform="translate(188.000000, 140.000000)">
                    <path d="M1.17857143,8.38095238 L66.8214286,8.38095238 C67.4723356,8.38095238 68,8.90861678 68,9.55952381 C68,10.2130421 67.4747778,10.7452178 66.821316,10.7538048 C49.7921856,10.977783 40.1494569,10.9725465 37.8931298,10.7380952 C37.1997914,10.6660516 36.9382025,10.0386242 36.7465864,9.95238095 C36.0952368,10.7380952 36.5225401,10.7380952 34,10.7380952 C31.4774599,10.7380952 32.2336536,10.7380952 31.4774599,9.95238095 C31.3066117,10.0258647 30.8792543,10.6749203 30.3433474,10.7380952 C28.2348858,10.9866494 18.5133332,10.9921055 1.1786898,10.7544636 C0.525119927,10.745523 8.00467143e-17,10.2131548 0,9.55952381 C-7.97131207e-17,8.90861678 0.527664402,8.38095238 1.17857143,8.38095238 Z" id="Rectangle" fill="#F67C83"></path>
                    <path d="M33.9216932,6.32890227 C37.120976,2.10963409 41.0448587,0 45.6933413,0 C50.3418239,0 56.9122369,2.79365079 65.4045802,8.38095238 L2.33587786,8.38095238 C8.98931372,2.79365079 15.0956986,0 20.6550326,0 C26.2143666,0 30.6365868,2.10963409 33.9216932,6.32890227 Z" id="Path-2" fill="#FFFFFF"></path>
                </g>
            </g>
        </g>
    </g>
</svg>