<svg width="424" height="381" viewBox="0 0 424 381" fill="none" xmlns="http://www.w3.org/2000/svg">
<path d="M365.486 103.486C417.014 179.914 335.234 263.237 275.077 289.396C214.92 315.556 144.88 364.913 87.3873 319.437C29.8941 273.961 81.8193 153.86 143.831 98.8252C205.842 43.7908 313.958 27.0583 365.486 103.486Z" fill="#E9EFF6"/>
<path d="M90.2686 107.772C90.2686 102.25 94.7457 97.7725 100.269 97.7725H341.155C346.678 97.7725 351.155 102.25 351.155 107.772V259.024H90.2686V107.772Z" fill="#2175CB"/>
<path d="M101.194 115.159C101.194 111.293 104.328 108.159 108.194 108.159H333.229C337.095 108.159 340.229 111.293 340.229 115.159V248.637H101.194V115.159Z" fill="white"/>
<path d="M70.5964 258.231H368.082C368.082 266.412 361.45 273.044 353.27 273.044H85.4089C77.2282 273.044 70.5964 266.412 70.5964 258.231Z" fill="#184676"/>
<path d="M191.213 259.069C190.903 256.802 192.664 254.783 194.952 254.783H246.471C248.759 254.783 250.52 256.802 250.21 259.069C249.954 260.938 248.357 262.33 246.471 262.33H194.952C193.066 262.33 191.469 260.938 191.213 259.069Z" fill="#2175CB"/>
<path d="M224.133 204.441L223.362 203.804L224.133 204.441ZM209.416 122.235L209.344 123.233L209.416 122.235ZM186.794 156.674L187.583 156.06L186.794 156.674ZM219.33 81.6563L219.706 80.7296L219.33 81.6563ZM208.044 245.602C207.98 245.054 207.483 244.661 206.935 244.725C206.386 244.79 205.994 245.287 206.058 245.835L208.044 245.602ZM206.721 236.546C206.611 237.087 206.961 237.615 207.502 237.725C208.043 237.835 208.571 237.485 208.681 236.943L206.721 236.546ZM209.28 234.354C209.418 233.819 209.097 233.274 208.562 233.135C208.028 232.997 207.482 233.318 207.344 233.853L209.28 234.354ZM210.292 225.171C210.079 225.681 210.32 226.266 210.83 226.479C211.34 226.691 211.925 226.45 212.138 225.941L210.292 225.171ZM213.21 223.496C213.441 222.995 213.222 222.401 212.72 222.17C212.218 221.939 211.624 222.158 211.393 222.66L213.21 223.496ZM215.686 214.589C215.4 215.062 215.551 215.676 216.024 215.962C216.496 216.248 217.111 216.097 217.397 215.624L215.686 214.589ZM218.821 213.351C219.122 212.888 218.99 212.268 218.527 211.968C218.064 211.667 217.444 211.799 217.144 212.262L218.821 213.351ZM222.494 204.869C222.149 205.3 222.218 205.929 222.648 206.275C223.079 206.621 223.708 206.552 224.054 206.121L222.494 204.869ZM225.936 203.795C226.277 203.36 226.2 202.731 225.766 202.391C225.331 202.051 224.702 202.127 224.362 202.562L225.936 203.795ZM230.06 193.733C229.805 194.223 229.995 194.827 230.485 195.082C230.974 195.337 231.578 195.147 231.833 194.657L230.06 193.733ZM233.26 191.718C233.487 191.215 233.262 190.622 232.759 190.395C232.255 190.169 231.663 190.393 231.436 190.896L233.26 191.718ZM234.826 180.949C234.698 181.486 235.03 182.025 235.567 182.153C236.104 182.281 236.644 181.949 236.772 181.412L234.826 180.949ZM237.44 178.209C237.538 177.666 237.177 177.146 236.633 177.048C236.089 176.951 235.57 177.312 235.472 177.856L237.44 178.209ZM236.379 167.377C236.381 167.929 236.831 168.375 237.383 168.373C237.935 168.371 238.381 167.922 238.379 167.37L236.379 167.377ZM238.28 164.105C238.249 163.553 237.776 163.132 237.225 163.163C236.674 163.194 236.252 163.667 236.283 164.218L238.28 164.105ZM234.769 153.796C234.896 154.334 235.435 154.667 235.972 154.54C236.51 154.413 236.843 153.875 236.716 153.337L234.769 153.796ZM235.882 150.178C235.727 149.648 235.171 149.344 234.641 149.499C234.111 149.654 233.807 150.209 233.962 150.739L235.882 150.178ZM230.101 140.964C230.352 141.455 230.954 141.651 231.446 141.4C231.938 141.149 232.133 140.546 231.882 140.055L230.101 140.964ZM230.305 137.186C230.024 136.711 229.411 136.554 228.935 136.835C228.46 137.116 228.303 137.729 228.584 138.205L230.305 137.186ZM222.237 129.928C222.63 130.316 223.263 130.313 223.651 129.921C224.04 129.528 224.037 128.895 223.644 128.506L222.237 129.928ZM221.17 126.288C220.74 125.941 220.11 126.008 219.764 126.438C219.417 126.868 219.484 127.498 219.914 127.844L221.17 126.288ZM210.835 123.419C211.379 123.515 211.897 123.152 211.994 122.608C212.09 122.064 211.727 121.545 211.183 121.449L210.835 123.419ZM207.941 121.161C207.389 121.146 206.929 121.582 206.915 122.134C206.9 122.686 207.336 123.145 207.888 123.16L207.941 121.161ZM198.463 124.565C198.984 124.38 199.255 123.808 199.07 123.288C198.884 122.768 198.312 122.496 197.792 122.681L198.463 124.565ZM194.931 123.914C194.439 124.165 194.244 124.768 194.495 125.26C194.746 125.751 195.349 125.947 195.841 125.695L194.931 123.914ZM188.609 131.743C188.944 131.304 188.859 130.676 188.419 130.342C187.98 130.007 187.352 130.092 187.018 130.532L188.609 131.743ZM185.297 133.129C185.023 133.608 185.189 134.219 185.668 134.494C186.148 134.768 186.759 134.602 187.033 134.123L185.297 133.129ZM184.172 143.138C184.224 142.588 183.82 142.101 183.27 142.049C182.72 141.998 182.233 142.402 182.181 142.951L184.172 143.138ZM182.097 146.07C182.12 146.621 182.585 147.05 183.137 147.028C183.689 147.005 184.118 146.54 184.095 145.988L182.097 146.07ZM186.775 154.916C186.478 154.45 185.86 154.314 185.394 154.612C184.929 154.909 184.793 155.528 185.09 155.993L186.775 154.916ZM186.97 158.442C187.34 158.853 187.972 158.887 188.383 158.517C188.793 158.148 188.827 157.516 188.458 157.105L186.97 158.442ZM195.828 162.476C195.33 162.237 194.732 162.447 194.493 162.945C194.254 163.443 194.464 164.04 194.962 164.279L195.828 162.476ZM197.686 165.436C198.204 165.629 198.78 165.367 198.973 164.849C199.167 164.332 198.904 163.756 198.387 163.563L197.686 165.436ZM207.451 165.704C206.903 165.638 206.405 166.029 206.339 166.577C206.274 167.126 206.665 167.624 207.213 167.689L207.451 165.704ZM210.132 167.951C210.683 167.984 211.157 167.564 211.19 167.013C211.223 166.461 210.803 165.987 210.252 165.954L210.132 167.951ZM219.632 165.665C219.083 165.73 218.691 166.227 218.756 166.776C218.821 167.324 219.318 167.716 219.866 167.652L219.632 165.665ZM222.758 167.236C223.303 167.144 223.669 166.627 223.577 166.083C223.485 165.538 222.969 165.172 222.424 165.264L222.758 167.236ZM231.525 162.93C231.003 163.112 230.728 163.682 230.909 164.203C231.091 164.725 231.661 165 232.183 164.819L231.525 162.93ZM234.918 163.785C235.429 163.577 235.675 162.993 235.466 162.482C235.258 161.97 234.674 161.725 234.162 161.934L234.918 163.785ZM242.478 157.614C242.015 157.914 241.883 158.533 242.183 158.997C242.484 159.46 243.103 159.592 243.566 159.292L242.478 157.614ZM245.977 157.621C246.421 157.292 246.514 156.666 246.185 156.222C245.857 155.778 245.231 155.685 244.787 156.014L245.977 157.621ZM251.61 149.666C251.253 150.087 251.305 150.718 251.726 151.075C252.147 151.432 252.778 151.38 253.135 150.959L251.61 149.666ZM254.955 148.642C255.279 148.195 255.18 147.57 254.733 147.245C254.286 146.921 253.66 147.021 253.336 147.468L254.955 148.642ZM257.752 139.307C257.556 139.824 257.816 140.401 258.332 140.597C258.849 140.792 259.426 140.532 259.622 140.016L257.752 139.307ZM260.557 137.215C260.711 136.685 260.406 136.13 259.875 135.976C259.345 135.822 258.79 136.128 258.636 136.658L260.557 137.215ZM260.072 127.486C260.053 128.038 260.485 128.501 261.037 128.52C261.589 128.539 262.052 128.106 262.071 127.555L260.072 127.486ZM262.079 124.496C262.066 123.944 261.608 123.507 261.056 123.519C260.504 123.532 260.067 123.99 260.079 124.542L262.079 124.496ZM258.925 114.635C259.049 115.174 259.586 115.51 260.124 115.386C260.662 115.262 260.998 114.725 260.874 114.187L258.925 114.635ZM260.043 111.145C259.875 110.619 259.312 110.329 258.786 110.497C258.26 110.665 257.97 111.228 258.138 111.754L260.043 111.145ZM253.695 102.988C254.024 103.431 254.651 103.524 255.094 103.195C255.538 102.867 255.631 102.24 255.302 101.797L253.695 102.988ZM253.295 99.3553C252.924 98.9464 252.292 98.9159 251.883 99.2872C251.474 99.6585 251.443 100.291 251.815 100.7L253.295 99.3553ZM244.185 94.3593C244.648 94.66 245.268 94.5283 245.568 94.065C245.869 93.6018 245.737 92.9825 245.274 92.6818L244.185 94.3593ZM242.617 91.0563C242.139 90.7799 241.528 90.9434 241.251 91.4215C240.975 91.8997 241.138 92.5114 241.616 92.7878L242.617 91.0563ZM232.589 88.2632C233.093 88.4885 233.685 88.2625 233.91 87.7583C234.135 87.2541 233.909 86.6626 233.405 86.4373L232.589 88.2632ZM230.582 85.2037C230.075 84.9864 229.487 85.2218 229.269 85.7295C229.052 86.2372 229.287 86.825 229.795 87.0423L230.582 85.2037ZM220.38 83.1606C220.891 83.3679 221.474 83.121 221.682 82.6092C221.889 82.0973 221.642 81.5142 221.13 81.3069L220.38 83.1606ZM218.401 80.1729C217.897 79.9471 217.305 80.1726 217.079 80.6766C216.853 81.1806 217.079 81.7723 217.583 81.9981L218.401 80.1729ZM209.196 76.8056C209.619 77.161 210.25 77.1064 210.605 76.6837C210.961 76.261 210.906 75.6302 210.483 75.2748L209.196 76.8056ZM208.44 73.3811C208.053 72.9863 207.42 72.9792 207.025 73.3654C206.631 73.7515 206.624 74.3847 207.01 74.7795L208.44 73.3811ZM201.436 66.5589C201.655 67.0658 202.244 67.299 202.751 67.0798C203.258 66.8606 203.491 66.2719 203.272 65.765L201.436 66.5589ZM202.326 63.164C202.169 62.6346 201.612 62.3329 201.083 62.4901C200.553 62.6473 200.252 63.2039 200.409 63.7334L202.326 63.164ZM199.584 53.8033C199.515 54.3512 199.903 54.8515 200.451 54.9207C200.999 54.9899 201.499 54.6018 201.568 54.0538L199.584 53.8033ZM202.085 51.344C202.223 50.8091 201.901 50.264 201.366 50.1264C200.831 49.9889 200.286 50.3109 200.149 50.8458L202.085 51.344ZM204.568 41.9141C204.228 42.3492 204.305 42.9776 204.74 43.3179C205.175 43.6581 205.804 43.5812 206.144 43.1461L204.568 41.9141ZM207.972 41.0724C208.361 40.6801 208.358 40.0469 207.965 39.6582C207.573 39.2695 206.94 39.2725 206.551 39.6649L207.972 41.0724ZM214.688 33.9894C214.188 34.2241 213.973 34.8197 214.208 35.3196C214.443 35.8195 215.038 36.0345 215.538 35.7998L214.688 33.9894ZM208.253 246.822C208.168 246.458 208.097 246.052 208.044 245.602L206.058 245.835C206.118 246.349 206.201 246.832 206.306 247.28L208.253 246.822ZM208.681 236.943C208.85 236.111 209.049 235.247 209.28 234.354L207.344 233.853C207.104 234.779 206.897 235.677 206.721 236.546L208.681 236.943ZM212.138 225.941C212.473 225.137 212.83 224.322 213.21 223.496L211.393 222.66C211.003 223.507 210.636 224.345 210.292 225.171L212.138 225.941ZM217.397 215.624C217.853 214.87 218.328 214.112 218.821 213.351L217.144 212.262C216.638 213.041 216.152 213.817 215.686 214.589L217.397 215.624ZM224.054 206.121C224.333 205.773 224.616 205.426 224.904 205.078L223.362 203.804C223.069 204.159 222.779 204.514 222.494 204.869L224.054 206.121ZM224.904 205.078C225.256 204.653 225.6 204.225 225.936 203.795L224.362 202.562C224.036 202.978 223.703 203.392 223.362 203.804L224.904 205.078ZM231.833 194.657C232.341 193.683 232.816 192.703 233.26 191.718L231.436 190.896C231.008 191.847 230.549 192.793 230.06 193.733L231.833 194.657ZM236.772 181.412C237.026 180.345 237.248 179.277 237.44 178.209L235.472 177.856C235.287 178.886 235.072 179.918 234.826 180.949L236.772 181.412ZM238.379 167.37C238.375 166.275 238.342 165.186 238.28 164.105L236.283 164.218C236.343 165.264 236.375 166.318 236.379 167.377L238.379 167.37ZM236.716 153.337C236.464 152.268 236.185 151.215 235.882 150.178L233.962 150.739C234.256 151.742 234.525 152.762 234.769 153.796L236.716 153.337ZM231.882 140.055C231.379 139.069 230.853 138.113 230.305 137.186L228.584 138.205C229.11 139.094 229.616 140.015 230.101 140.964L231.882 140.055ZM223.644 128.506C222.84 127.71 222.014 126.969 221.17 126.288L219.914 127.844C220.702 128.48 221.478 129.176 222.237 129.928L223.644 128.506ZM211.183 121.449C210.62 121.35 210.055 121.279 209.489 121.238L209.344 123.233C209.84 123.269 210.338 123.331 210.835 123.419L211.183 121.449ZM209.489 121.238C208.966 121.2 208.45 121.175 207.941 121.161L207.888 123.16C208.366 123.173 208.851 123.197 209.344 123.233L209.489 121.238ZM197.792 122.681C196.793 123.038 195.839 123.451 194.931 123.914L195.841 125.695C196.671 125.271 197.545 124.893 198.463 124.565L197.792 122.681ZM187.018 130.532C186.384 131.365 185.81 132.234 185.297 133.129L187.033 134.123C187.503 133.302 188.029 132.506 188.609 131.743L187.018 130.532ZM182.181 142.951C182.083 143.994 182.055 145.037 182.097 146.07L184.095 145.988C184.057 145.047 184.083 144.094 184.172 143.138L182.181 142.951ZM185.09 155.993C185.375 156.438 185.679 156.87 186.005 157.288L187.583 156.06C187.296 155.691 187.027 155.309 186.775 154.916L185.09 155.993ZM186.005 157.288C186.312 157.684 186.635 158.069 186.97 158.442L188.458 157.105C188.153 156.766 187.862 156.418 187.583 156.06L186.005 157.288ZM194.962 164.279C195.841 164.701 196.75 165.086 197.686 165.436L198.387 163.563C197.504 163.233 196.65 162.87 195.828 162.476L194.962 164.279ZM207.213 167.689C208.174 167.805 209.148 167.892 210.132 167.951L210.252 165.954C209.306 165.898 208.372 165.814 207.451 165.704L207.213 167.689ZM219.866 167.652C220.829 167.538 221.794 167.399 222.758 167.236L222.424 165.264C221.493 165.422 220.561 165.556 219.632 165.665L219.866 167.652ZM232.183 164.819C233.103 164.498 234.015 164.154 234.918 163.785L234.162 161.934C233.292 162.289 232.412 162.621 231.525 162.93L232.183 164.819ZM243.566 159.292C244.387 158.759 245.192 158.202 245.977 157.621L244.787 156.014C244.036 156.57 243.265 157.103 242.478 157.614L243.566 159.292ZM253.135 150.959C253.769 150.212 254.377 149.439 254.955 148.642L253.336 147.468C252.788 148.223 252.212 148.956 251.61 149.666L253.135 150.959ZM259.622 140.016C259.967 139.104 260.28 138.171 260.557 137.215L258.636 136.658C258.374 137.562 258.078 138.445 257.752 139.307L259.622 140.016ZM262.071 127.555C262.088 127.062 262.096 126.566 262.096 126.065H260.096C260.096 126.543 260.088 127.017 260.072 127.486L262.071 127.555ZM262.096 126.065C262.096 125.535 262.09 125.012 262.079 124.496L260.079 124.542C260.091 125.042 260.096 125.55 260.096 126.065H262.096ZM260.874 114.187C260.632 113.135 260.355 112.122 260.043 111.145L258.138 111.754C258.432 112.676 258.695 113.636 258.925 114.635L260.874 114.187ZM255.302 101.797C254.672 100.947 254.003 100.135 253.295 99.3553L251.815 100.7C252.479 101.432 253.106 102.193 253.695 102.988L255.302 101.797ZM245.274 92.6818C244.415 92.1244 243.529 91.5836 242.617 91.0563L241.616 92.7878C242.501 93.2995 243.358 93.8223 244.185 94.3593L245.274 92.6818ZM233.405 86.4373C232.481 86.0243 231.54 85.6138 230.582 85.2037L229.795 87.0423C230.745 87.449 231.676 87.8552 232.589 88.2632L233.405 86.4373ZM221.13 81.3069C220.658 81.1157 220.184 80.9234 219.706 80.7296L218.954 82.583C219.432 82.7769 219.908 82.9694 220.38 83.1606L221.13 81.3069ZM219.706 80.7296C219.262 80.5497 218.827 80.3641 218.401 80.1729L217.583 81.9981C218.032 82.1991 218.489 82.3942 218.954 82.583L219.706 80.7296ZM210.483 75.2748C209.757 74.6642 209.076 74.032 208.44 73.3811L207.01 74.7795C207.692 75.4775 208.421 76.1538 209.196 76.8056L210.483 75.2748ZM203.272 65.765C202.901 64.908 202.586 64.0396 202.326 63.164L200.409 63.7334C200.692 64.6856 201.034 65.629 201.436 66.5589L203.272 65.765ZM201.568 54.0538C201.683 53.1415 201.856 52.2367 202.085 51.344L200.149 50.8458C199.898 51.82 199.71 52.8076 199.584 53.8033L201.568 54.0538ZM206.144 43.1461C206.704 42.4295 207.314 41.7369 207.972 41.0724L206.551 39.6649C205.838 40.3846 205.177 41.1357 204.568 41.9141L206.144 43.1461ZM215.538 35.7998C215.957 35.6031 216.386 35.4141 216.823 35.2331L216.059 33.385C215.593 33.5778 215.136 33.7794 214.688 33.9894L215.538 35.7998Z" fill="#4A4A4A"/>
<path d="M241.371 32.2118C238.073 30.7847 234.222 31.5746 232.017 32.2758C231.625 32.4006 231.455 32.7924 231.633 33.1638C232.631 35.2512 234.691 38.5992 237.989 40.0264C241.287 41.4535 245.138 40.6636 247.343 39.9624C247.735 39.8376 247.905 39.4458 247.727 39.0744C246.729 36.987 244.669 33.639 241.371 32.2118Z" stroke="#2175CB" stroke-width="2"/>
<path d="M228.576 15.9076C228.872 19.4888 226.889 22.8838 225.519 24.7477C225.275 25.0794 224.849 25.1144 224.554 24.8272C222.897 23.213 220.386 20.1885 220.09 16.6073C219.795 13.0261 221.777 9.63116 223.148 7.76724C223.392 7.43559 223.817 7.40051 224.112 7.68774C225.77 9.30198 228.281 12.3265 228.576 15.9076Z" stroke="#2175CB" stroke-width="2"/>
<circle cx="228.643" cy="28.601" r="6.23565" transform="rotate(54.3438 228.643 28.601)" fill="#2175CB"/>
</svg>
