<svg width="454" height="708" viewBox="0 0 454 708" fill="none" xmlns="http://www.w3.org/2000/svg">
<g filter="url(#filter0_d)">
<rect x="20" y="80.1118" width="286.14" height="619.749" rx="25" transform="rotate(-12.52 20 80.1118)" fill="white"/>
<path d="M322.473 122.273C325.164 121.675 327.83 123.372 328.428 126.064L335.363 157.295C335.961 159.986 334.264 162.652 331.572 163.25L322.473 122.273Z" fill="white"/>
<path d="M335.695 183.947C337.786 183.482 339.859 184.801 340.323 186.893L346.982 216.88C347.446 218.972 346.127 221.044 344.036 221.509L335.695 183.947Z" fill="white"/>
<path d="M344.036 221.509C346.127 221.044 348.2 222.363 348.664 224.455L355.323 254.442C355.788 256.534 354.468 258.606 352.377 259.071L344.036 221.509Z" fill="white"/>
</g>
<rect x="36.937" y="89.5441" width="255.983" height="590.853" rx="20" transform="rotate(-12.52 36.937 89.5441)" fill="#F1F1F1"/>
<path d="M107.662 73.8387L218.103 49.3141C220.745 61.2118 213.242 72.9986 201.344 75.6406L133.989 90.5976C122.091 93.2396 110.304 85.7364 107.662 73.8387Z" fill="white"/>
<defs>
<filter id="filter0_d" x="0" y="0.0821228" width="453.686" height="707.041" filterUnits="userSpaceOnUse" color-interpolation-filters="sRGB">
<feFlood flood-opacity="0" result="BackgroundImageFix"/>
<feColorMatrix in="SourceAlpha" type="matrix" values="0 0 0 0 0 0 0 0 0 0 0 0 0 0 0 0 0 0 127 0" result="hardAlpha"/>
<feOffset dy="2"/>
<feGaussianBlur stdDeviation="10"/>
<feComposite in2="hardAlpha" operator="out"/>
<feColorMatrix type="matrix" values="0 0 0 0 0.728564 0 0 0 0 0.728564 0 0 0 0 0.728564 0 0 0 1 0"/>
<feBlend mode="normal" in2="BackgroundImageFix" result="effect1_dropShadow"/>
<feBlend mode="normal" in="SourceGraphic" in2="effect1_dropShadow" result="shape"/>
</filter>
</defs>
</svg>
