<svg xmlns="http://www.w3.org/2000/svg" xmlns:xlink="http://www.w3.org/1999/xlink" viewBox="0 0 1538.02 1536.52"><defs><style>.cls-1{fill:none;}.cls-2{fill:url(#linear-gradient);}.cls-3{clip-path:url(#clip-path);}.cls-4{fill:url(#linear-gradient-2);}.cls-5{clip-path:url(#clip-path-2);}.cls-6{fill:url(#linear-gradient-4);}.cls-7{clip-path:url(#clip-path-3);}.cls-8{fill:#fff;}.cls-9{fill:url(#linear-gradient-5);}</style><linearGradient id="linear-gradient" x1="768.01" y1="1536.52" x2="768.01" y2="0.52" gradientUnits="userSpaceOnUse"><stop offset="0" stop-color="#2b32b2" stop-opacity="0"/><stop offset="0.13" stop-color="#2a37b3" stop-opacity="0.04"/><stop offset="0.32" stop-color="#2643b7" stop-opacity="0.14"/><stop offset="0.56" stop-color="#2158bd" stop-opacity="0.31"/><stop offset="0.83" stop-color="#1974c6" stop-opacity="0.54"/><stop offset="1" stop-color="#1488cc" stop-opacity="0.7"/></linearGradient><clipPath id="clip-path"><rect class="cls-1" x="4.5" y="0.52" width="1533.01" height="1533.01" rx="229.08" ry="229.08"/></clipPath><linearGradient id="linear-gradient-2" x1="-134.27" y1="1289.23" x2="1678.91" y2="240.74" gradientTransform="matrix(1, 0, 0, 1, -0.82, 1.51)" gradientUnits="userSpaceOnUse"><stop offset="0.03" stop-color="#bd3f32"/><stop offset="0.24" stop-color="#9e4764"/><stop offset="0.61" stop-color="#6b53b5"/><stop offset="0.87" stop-color="#4b5be7"/><stop offset="1" stop-color="#3f5efb"/></linearGradient><clipPath id="clip-path-2"><rect class="cls-2" x="0.01" y="0.52" width="1536" height="1536" rx="229.08" ry="229.08"/></clipPath><linearGradient id="linear-gradient-4" x1="769.85" y1="1534.48" x2="768.81" y2="-1.51" gradientTransform="matrix(1, 0, 0, 1, -0.82, 1.51)" xlink:href="#linear-gradient"/><clipPath id="clip-path-3"><path class="cls-1" d="M1227.61,403.23c-22.95-39-58.27-70.46-93.61-94.24s-76.75-40.49-124.19-50.21-97.84-14.6-151.1-14.63L572.35,244a95.76,95.76,0,0,0-95.82,95.69l-.46,391.18H4.5V922.72l471.66-.1-.08,89.76v193.29h-.13l-.34,328.28,226.66.15.56-611.49,176.11.11q81.36.06,151.12-15.16t120.63-51.49q50.86-36.27,80-97.29c19.39-40.67,35.87-87.57,36.65-173.54C1268,506.53,1257.55,454.13,1227.61,403.23Zm-217,264.59a104.78,104.78,0,0,1-36.35,37.75,156.14,156.14,0,0,1-50.87,19.58,291.91,291.91,0,0,1-58.85,5.77L703,730.83l.12-225.24c0-21.24.55-69.41.55-69.41s52-.3,69.24-.28l46.49,0a650,650,0,0,1,66.83,3.68q34.87,3.66,63.19,16.75c18.88,8.73,39.32,21.31,52.17,36.71,14.68,17.6,29.94,32.94,30.38,92A162.84,162.84,0,0,1,1010.61,667.83Z"/></clipPath><linearGradient id="linear-gradient-5" x1="379.52" y1="826.87" x2="803.19" y2="826.87" gradientUnits="userSpaceOnUse"><stop offset="0.01" stop-color="#fff"/><stop offset="0.06" stop-color="#f6f6f6"/><stop offset="0.14" stop-color="#dedede"/><stop offset="0.25" stop-color="#b6b6b6"/><stop offset="0.37" stop-color="#7f7f7f"/><stop offset="0.51" stop-color="#393939"/><stop offset="0.52" stop-color="#333"/><stop offset="0.53" stop-color="#393939"/><stop offset="0.66" stop-color="#7f7f7f"/><stop offset="0.77" stop-color="#b6b6b6"/><stop offset="0.87" stop-color="#dedede"/><stop offset="0.95" stop-color="#f6f6f6"/><stop offset="1" stop-color="#fff"/></linearGradient></defs><title>Asset 47</title><g id="Layer_2" data-name="Layer 2"><g id="Layer_4" data-name="Layer 4"><g class="cls-3"><rect class="cls-4" x="4.48" y="0.52" width="1533.02" height="1533.01"/></g><rect class="cls-2" x="0.01" y="0.52" width="1536" height="1536" rx="229.08" ry="229.08"/><g class="cls-5"><rect class="cls-6" x="0.52" y="1.05" width="1534.96" height="1534.94"/></g><g class="cls-7"><rect class="cls-8" x="2.99" y="22.99" width="1491.11" height="1510.54" rx="221.03" ry="221.03"/></g><polyline class="cls-9" points="803.19 923.25 379.52 923.25 379.52 730.5 803.19 730.5"/><rect class="cls-8" x="476.3" y="692.33" width="227.1" height="311.07"/></g></g></svg>