<svg width="25" height="25" viewBox="0 0 25 25" fill="none" xmlns="http://www.w3.org/2000/svg">
<g clip-path="url(#clip0_45_64)">
<path d="M12.6509 15.0198C14.3077 15.0198 15.6509 13.6766 15.6509 12.0198C15.6509 10.3629 14.3077 9.01978 12.6509 9.01978C10.994 9.01978 9.65088 10.3629 9.65088 12.0198C9.65088 13.6766 10.994 15.0198 12.6509 15.0198Z" stroke="#7C7A7A" stroke-width="1.7" stroke-linecap="round" stroke-linejoin="round"/>
<path d="M20.0509 15.0198C19.9178 15.3214 19.8781 15.656 19.9369 15.9804C19.9957 16.3048 20.1503 16.6041 20.3809 16.8398L20.4409 16.8998C20.6268 17.0855 20.7743 17.3061 20.875 17.5489C20.9756 17.7917 21.0275 18.0519 21.0275 18.3148C21.0275 18.5776 20.9756 18.8379 20.875 19.0807C20.7743 19.3235 20.6268 19.544 20.4409 19.7298C20.2551 19.9157 20.0346 20.0632 19.7918 20.1639C19.549 20.2645 19.2887 20.3163 19.0259 20.3163C18.763 20.3163 18.5028 20.2645 18.26 20.1639C18.0172 20.0632 17.7966 19.9157 17.6109 19.7298L17.5509 19.6698C17.3152 19.4392 17.0159 19.2846 16.6915 19.2258C16.3671 19.167 16.0325 19.2067 15.7309 19.3398C15.4351 19.4665 15.1829 19.677 15.0052 19.9453C14.8275 20.2136 14.7322 20.528 14.7309 20.8498V21.0198C14.7309 21.5502 14.5202 22.0589 14.1451 22.434C13.77 22.8091 13.2613 23.0198 12.7309 23.0198C12.2004 23.0198 11.6917 22.8091 11.3167 22.434C10.9416 22.0589 10.7309 21.5502 10.7309 21.0198V20.9298C10.7231 20.5988 10.616 20.2778 10.4234 20.0085C10.2308 19.7392 9.96161 19.5341 9.65088 19.4198C9.34926 19.2867 9.01469 19.247 8.69029 19.3058C8.3659 19.3646 8.06656 19.5192 7.83088 19.7498L7.77088 19.8098C7.58513 19.9957 7.36456 20.1432 7.12176 20.2439C6.87896 20.3445 6.61871 20.3963 6.35588 20.3963C6.09305 20.3963 5.83279 20.3445 5.59 20.2439C5.3472 20.1432 5.12663 19.9957 4.94088 19.8098C4.75493 19.624 4.60741 19.4035 4.50676 19.1607C4.40611 18.9179 4.35431 18.6576 4.35431 18.3948C4.35431 18.1319 4.40611 17.8717 4.50676 17.6289C4.60741 17.3861 4.75493 17.1655 4.94088 16.9798L5.00088 16.9198C5.23142 16.6841 5.38606 16.3848 5.44488 16.0604C5.5037 15.736 5.46399 15.4014 5.33088 15.0998C5.20412 14.804 4.99363 14.5518 4.72534 14.3741C4.45705 14.1964 4.14267 14.1011 3.82088 14.0998H3.65088C3.12045 14.0998 2.61174 13.8891 2.23667 13.514C1.86159 13.1389 1.65088 12.6302 1.65088 12.0998C1.65088 11.5693 1.86159 11.0606 2.23667 10.6856C2.61174 10.3105 3.12045 10.0998 3.65088 10.0998H3.74088C4.07187 10.092 4.39288 9.98489 4.66218 9.79229C4.93147 9.59968 5.13659 9.33051 5.25088 9.01978C5.38399 8.71816 5.4237 8.38358 5.36488 8.05919C5.30606 7.73479 5.15142 7.43545 4.92088 7.19978L4.86088 7.13978C4.67493 6.95403 4.52741 6.73345 4.42676 6.49066C4.32611 6.24786 4.27431 5.98761 4.27431 5.72478C4.27431 5.46194 4.32611 5.20169 4.42676 4.95889C4.52741 4.7161 4.67493 4.49552 4.86088 4.30978C5.04663 4.12382 5.2672 3.9763 5.51 3.87566C5.75279 3.77501 6.01305 3.7232 6.27588 3.7232C6.53871 3.7232 6.79896 3.77501 7.04176 3.87566C7.28456 3.9763 7.50513 4.12382 7.69088 4.30978L7.75088 4.36978C7.98656 4.60031 8.28589 4.75496 8.61029 4.81378C8.93469 4.8726 9.26926 4.83289 9.57088 4.69978H9.65088C9.94665 4.57301 10.1989 4.36253 10.3766 4.09424C10.5542 3.82595 10.6496 3.51156 10.6509 3.18978V3.01978C10.6509 2.48934 10.8616 1.98063 11.2367 1.60556C11.6117 1.23049 12.1204 1.01978 12.6509 1.01978C13.1813 1.01978 13.69 1.23049 14.0651 1.60556C14.4402 1.98063 14.6509 2.48934 14.6509 3.01978V3.10978C14.6522 3.43156 14.7475 3.74595 14.9252 4.01424C15.1029 4.28253 15.3551 4.49301 15.6509 4.61978C15.9525 4.75289 16.2871 4.7926 16.6115 4.73378C16.9359 4.67496 17.2352 4.52031 17.4709 4.28978L17.5309 4.22978C17.7166 4.04382 17.9372 3.8963 18.18 3.79566C18.4228 3.69501 18.683 3.6432 18.9459 3.6432C19.2087 3.6432 19.469 3.69501 19.7118 3.79566C19.9546 3.8963 20.1751 4.04382 20.3609 4.22978C20.5468 4.41552 20.6943 4.6361 20.795 4.87889C20.8956 5.12169 20.9475 5.38194 20.9475 5.64478C20.9475 5.90761 20.8956 6.16786 20.795 6.41066C20.6943 6.65345 20.5468 6.87403 20.3609 7.05978L20.3009 7.11978C20.0703 7.35545 19.9157 7.65479 19.8569 7.97919C19.7981 8.30358 19.8378 8.63816 19.9709 8.93978V9.01978C20.0976 9.31554 20.3081 9.56779 20.5764 9.74547C20.8447 9.92314 21.1591 10.0185 21.4809 10.0198H21.6509C22.1813 10.0198 22.69 10.2305 23.0651 10.6056C23.4402 10.9806 23.6509 11.4893 23.6509 12.0198C23.6509 12.5502 23.4402 13.0589 23.0651 13.434C22.69 13.8091 22.1813 14.0198 21.6509 14.0198H21.5609C21.2391 14.0211 20.9247 14.1164 20.6564 14.2941C20.3881 14.4718 20.1776 14.724 20.0509 15.0198V15.0198Z" stroke="#7C7A7A" stroke-width="1.7" stroke-linecap="round" stroke-linejoin="round"/>
</g>
<defs>
<clipPath id="clip0_45_64">
<rect width="24" height="24" fill="white" transform="translate(0.650879 0.0197754)"/>
</clipPath>
</defs>
</svg>
