<svg width="23" height="23" viewBox="0 0 23 23" fill="none" xmlns="http://www.w3.org/2000/svg">
<path d="M14.04 6.21549C13.8472 6.41221 13.7392 6.67668 13.7392 6.95214C13.7392 7.2276 13.8472 7.49207 14.04 7.68879L15.7238 9.37256C15.9205 9.56538 16.185 9.67339 16.4605 9.67339C16.7359 9.67339 17.0004 9.56538 17.1971 9.37256L21.1645 5.40518C21.6937 6.57454 21.8539 7.87741 21.6238 9.14014C21.3937 10.4029 20.7843 11.5655 19.8767 12.4731C18.9691 13.3807 17.8065 13.9901 16.5437 14.2202C15.281 14.4503 13.9781 14.2901 12.8088 13.7609L5.53699 21.0327C5.11834 21.4513 4.55053 21.6865 3.95846 21.6865C3.36639 21.6865 2.79858 21.4513 2.37992 21.0327C1.96127 20.614 1.72607 20.0462 1.72607 19.4541C1.72607 18.8621 1.96127 18.2943 2.37992 17.8756L9.65171 10.6038C9.12255 9.43445 8.96233 8.13159 9.1924 6.86885C9.42247 5.60612 10.0319 4.44349 10.9395 3.5359C11.8471 2.62831 13.0097 2.01887 14.2725 1.7888C15.5352 1.55872 16.8381 1.71894 18.0074 2.24811L14.0506 6.20497L14.04 6.21549Z" stroke="white" stroke-width="2" stroke-linecap="round" stroke-linejoin="round"/>
</svg>
