<svg width="25" height="25" viewBox="0 0 25 25" fill="none" xmlns="http://www.w3.org/2000/svg">
<path d="M2.65088 3.01978H8.65088C9.71174 3.01978 10.7292 3.4412 11.4793 4.19135C12.2295 4.94149 12.6509 5.95891 12.6509 7.01978V21.0198C12.6509 20.2241 12.3348 19.4611 11.7722 18.8985C11.2096 18.3358 10.4465 18.0198 9.65088 18.0198H2.65088V3.01978Z" stroke="#7C7A7A" stroke-width="1.7" stroke-linecap="round" stroke-linejoin="round"/>
<path d="M22.6509 3.01978H16.6509C15.59 3.01978 14.5726 3.4412 13.8225 4.19135C13.0723 4.94149 12.6509 5.95891 12.6509 7.01978V21.0198C12.6509 20.2241 12.9669 19.4611 13.5296 18.8985C14.0922 18.3358 14.8552 18.0198 15.6509 18.0198H22.6509V3.01978Z" stroke="#7C7A7A" stroke-width="1.7" stroke-linecap="round" stroke-linejoin="round"/>
</svg>
